<svg width="1201" height="1201" viewBox="0 0 1201 1201" fill="none" xmlns="http://www.w3.org/2000/svg">
<path d="M600.223 1200.5C931.594 1200.5 1200.22 931.871 1200.22 600.5C1200.22 269.129 931.594 0.5 600.223 0.5C268.852 0.5 0.222656 269.129 0.222656 600.5C0.222656 931.871 268.852 1200.5 600.223 1200.5Z" fill="#D75D2C"/>
<path d="M1007.67 501.115C1007.67 501.115 924.061 394.251 818.975 388.139C751.162 384.137 734.734 393.197 731.789 399.944C727.581 364.956 697.677 202.861 491.085 168.509C517.458 358.09 626.375 308.692 690.517 439.361C690.517 439.361 582.276 292.235 404.325 346.404C404.325 346.404 469.185 482.57 661.032 510.391C661.032 510.391 676.406 563.087 681.04 572.363C681.04 572.363 385.58 418.28 295.868 714.005C229.102 698.883 206.707 771.359 283.446 820.87C283.446 820.87 296.503 769.02 328.298 753.631C328.298 753.631 260.067 829.727 340.302 920.86H628.28C635.238 909.335 666.035 848.691 589.869 802.785C643.634 802.017 687.397 903.433 734.483 921.559H802.966C805.283 915.929 810.126 899.067 798.751 883.896C781.213 863.779 742.816 866.503 743.158 829.3C756.417 656.246 1015.91 709.388 1007.66 501.115H1007.67Z" fill="#FEFEFE"/>
</svg>
