<?xml version="1.0" encoding="UTF-8"?>
<svg version="1.1" xmlns="http://www.w3.org/2000/svg" width="200" height="200">
<path d="M0 0 C66 0 132 0 200 0 C200 66 200 132 200 200 C134 200 68 200 0 200 C0 134 0 68 0 0 Z " fill="#FEFEFE" transform="translate(0,0)"/>
<path d="M0 0 C5.28 0 10.56 0 16 0 C20.08448999 9.67495202 23.8821049 19.43584632 27.6015625 29.25585938 C28.02695312 30.37154297 28.45234375 31.48722656 28.890625 32.63671875 C29.46345215 34.14818481 29.46345215 34.14818481 30.04785156 35.69018555 C30.79539297 37.9234787 30.79539297 37.9234787 32 39 C32.38333496 37.96069336 32.76666992 36.92138672 33.16162109 35.85058594 C34.58688541 31.9882401 36.01515898 28.12701286 37.44433594 24.26611328 C38.06201768 22.59616887 38.67888718 20.92592379 39.29492188 19.25537109 C40.18144861 16.85173973 41.07090799 14.44921118 41.9609375 12.046875 C42.23497406 11.30193787 42.50901062 10.55700073 42.79135132 9.78948975 C44.0462507 6.41040996 45.38469344 3.23061313 47 0 C52.28 0 57.56 0 63 0 C63 19.14 63 38.28 63 58 C59.04 58 55.08 58 51 58 C50.67 46.12 50.34 34.24 50 22 C45.38 33.88 40.76 45.76 36 58 C33.03 58 30.06 58 27 58 C22.38 45.79 17.76 33.58 13 21 C12.67 33.54 12.34 46.08 12 59 C8.04 59 4.08 59 0 59 C0 39.53 0 20.06 0 0 Z " fill="#070707" transform="translate(15,71)"/>
<path d="M0 0 C5.30951369 -1.00788535 10.83009839 -2.0162492 16 0 C20.27157719 4.09272108 22.6753518 9.73761462 24.99536133 15.09887695 C26.07315893 17.13844194 27.29788594 18.45927513 29 20 C29.24492187 19.16210938 29.48984375 18.32421875 29.7421875 17.4609375 C31.161461 13.55573153 33.01857766 10.19028729 35.125 6.625 C35.49753906 5.98433594 35.87007812 5.34367187 36.25390625 4.68359375 C37.16434002 3.11951523 38.08148191 1.55934466 39 0 C43.95 0 48.9 0 54 0 C50.20927131 7.28218933 46.06878775 14.08494448 41.34033203 20.78344727 C38.98448452 24.19547401 37.33050126 26.84456561 37 31 C37.98713492 33.40925186 37.98713492 33.40925186 39.640625 35.6875 C40.50494141 36.98300781 40.50494141 36.98300781 41.38671875 38.3046875 C42.00160156 39.19414063 42.61648437 40.08359375 43.25 41 C44.44317555 42.77051856 45.63589809 44.54134251 46.828125 46.3125 C47.3634082 47.09238281 47.89869141 47.87226562 48.45019531 48.67578125 C53 55.49905482 53 55.49905482 53 58 C47.94841375 59.10439537 42.87545307 60.08538488 38 58 C32.99428593 53.05982719 29.94602062 46.30770881 27 40 C24.68411096 42.68501546 22.92975844 45.14198116 21.3515625 48.33203125 C19.44580805 52.17372178 17.95066796 54.87892873 15 58 C10.15826998 59.12453084 5.87793071 58.80157007 1 58 C2.37962951 54.2230303 4.12773154 51.0519141 6.328125 47.69140625 C6.96234375 46.69689453 7.5965625 45.70238281 8.25 44.67773438 C9.58614338 42.59653449 10.935207 40.52357449 12.296875 38.45898438 C12.9259375 37.46318359 13.555 36.46738281 14.203125 35.44140625 C14.78739258 34.54107666 15.37166016 33.64074707 15.97363281 32.71313477 C17.27628684 29.9979602 17.27628684 29.9979602 16.39208984 27.00878906 C14.97317191 23.94201518 13.399119 21.22806733 11.5234375 18.41796875 C10.51796875 16.89719727 10.51796875 16.89719727 9.4921875 15.34570312 C8.79351562 14.30349609 8.09484375 13.26128906 7.375 12.1875 C5.98512769 10.09888714 4.59700381 8.00910933 3.2109375 5.91796875 C2.59524902 4.99781982 1.97956055 4.0776709 1.34521484 3.12963867 C0 1 0 1 0 0 Z " fill="#D5D5D5" transform="translate(134,71)"/>
<path d="M0 0 C4.29 0 8.58 0 13 0 C13 15.84 13 31.68 13 48 C21.25 48 29.5 48 38 48 C38 51.3 38 54.6 38 58 C25.46 58 12.92 58 0 58 C0 38.86 0 19.72 0 0 Z " fill="#010101" transform="translate(90,71)"/>
<path d="M0 0 C0.33 0 0.66 0 1 0 C1 12.54 1 25.08 1 38 C0.67 38 0.34 38 0 38 C-0.02505615 37.07662842 -0.0501123 36.15325684 -0.07592773 35.2019043 C-0.17109045 31.77453584 -0.27032214 28.34733539 -0.37231445 24.92016602 C-0.4156133 23.43713985 -0.45729199 21.95406546 -0.49731445 20.47094727 C-0.55513958 18.33855661 -0.61879832 16.20640758 -0.68359375 14.07421875 C-0.73858032 12.14968872 -0.73858032 12.14968872 -0.79467773 10.1862793 C-0.86561234 6.97888449 -0.86561234 6.97888449 -2 4 C-1.0625 1.8125 -1.0625 1.8125 0 0 Z " fill="#D7D7D7" transform="translate(65,91)"/>
</svg>
